<svg id='Conversation_Speak_24' width='24' height='24' viewBox='0 0 24 24' xmlns='http://www.w3.org/2000/svg' xmlns:xlink='http://www.w3.org/1999/xlink'><rect width='24' height='24' stroke='none' fill='#000000' opacity='0'/>


<g transform="matrix(0.83 0 0 0.83 12 12)" >
<g style="" >
<g transform="matrix(1 0 0 1 7.5 -8.44)" >
<path style="stroke: rgb(0,0,0); stroke-width: 1.5; stroke-dasharray: none; stroke-linecap: round; stroke-dashoffset: 0; stroke-linejoin: round; stroke-miterlimit: 4; fill: none; fill-rule: nonzero; opacity: 1;" transform=" translate(-19.5, -3.56)" d="M 16.875 3.562 C 16.875 5.011747468305833 18.050252531694166 6.186999999999999 19.5 6.186999999999999 C 20.949747468305834 6.186999999999999 22.125 5.011747468305833 22.125 3.562 C 22.125 2.1122525316941667 20.949747468305834 0.9369999999999998 19.5 0.9369999999999998 C 18.050252531694166 0.9369999999999998 16.875 2.1122525316941667 16.875 3.5619999999999994 Z" stroke-linecap="round" />
</g>
<g transform="matrix(1 0 0 1 7.5 3.56)" >
<path style="stroke: rgb(0,0,0); stroke-width: 1.5; stroke-dasharray: none; stroke-linecap: round; stroke-dashoffset: 0; stroke-linejoin: round; stroke-miterlimit: 4; fill: none; fill-rule: nonzero; opacity: 1;" transform=" translate(-19.5, -15.56)" d="M 17.25 20.813 C 17.25 22.055640687119283 18.257359312880716 23.063 19.5 23.063 C 20.742640687119284 23.063 21.75 22.055640687119283 21.75 20.813 L 21.75 17.063 C 22.57842712474619 17.063 23.25 16.39142712474619 23.25 15.562999999999999 L 23.25 11.062999999999999 C 23.25 9.40614575050762 21.90685424949238 8.062999999999999 20.25 8.062999999999999 L 18.75 8.062999999999999 C 17.09314575050762 8.062999999999999 15.75 9.40614575050762 15.75 11.062999999999999 L 15.75 15.562999999999999 C 15.75 16.39142712474619 16.42157287525381 17.063 17.25 17.063 Z" stroke-linecap="round" />
</g>
<g transform="matrix(1 0 0 1 -6 -8.44)" >
<path style="stroke: rgb(0,0,0); stroke-width: 1.5; stroke-dasharray: none; stroke-linecap: round; stroke-dashoffset: 0; stroke-linejoin: round; stroke-miterlimit: 4; fill: none; fill-rule: nonzero; opacity: 1;" transform=" translate(-6, -3.56)" d="M 3.375 3.562 C 3.375 5.011747468305833 4.550252531694167 6.186999999999999 6 6.186999999999999 C 7.449747468305833 6.186999999999999 8.625 5.011747468305833 8.625 3.562 C 8.625 2.1122525316941667 7.449747468305833 0.9369999999999998 6 0.9369999999999998 C 4.550252531694167 0.9369999999999998 3.375 2.1122525316941667 3.375 3.5619999999999994 Z" stroke-linecap="round" />
</g>
<g transform="matrix(1 0 0 1 -6 3.56)" >
<path style="stroke: rgb(0,0,0); stroke-width: 1.5; stroke-dasharray: none; stroke-linecap: round; stroke-dashoffset: 0; stroke-linejoin: round; stroke-miterlimit: 4; fill: none; fill-rule: nonzero; opacity: 1;" transform=" translate(-6, -15.56)" d="M 3.75 20.813 C 3.75 22.055640687119283 4.757359312880714 23.063 6 23.063 C 7.242640687119286 23.063 8.25 22.055640687119283 8.25 20.813 L 8.25 17.063 L 11.25 17.063 L 9.75 12.562999999999999 L 9.75 11.062999999999999 C 9.75 9.40614575050762 8.40685424949238 8.062999999999999 6.75 8.062999999999999 L 5.25 8.062999999999999 C 3.5931457505076194 8.062999999999999 2.25 9.40614575050762 2.25 11.062999999999999 L 2.25 12.562999999999999 L 0.75 17.063 L 3.75 17.063 Z" stroke-linecap="round" />
</g>
<g transform="matrix(1 0 0 1 -1.19 -8.44)" >
<path style="stroke: rgb(0,0,0); stroke-width: 1.5; stroke-dasharray: none; stroke-linecap: round; stroke-dashoffset: 0; stroke-linejoin: round; stroke-miterlimit: 4; fill: none; fill-rule: nonzero; opacity: 1;" transform=" translate(-10.81, -3.56)" d="M 10.371 1.441 C 10.933719046282794 2.003623736000355 11.249859328097262 2.7667624846342758 11.249859328097262 3.562499999999999 C 11.249859328097262 4.3582375153657225 10.933719046282794 5.121376263999644 10.371000000000002 5.683999999999999" stroke-linecap="round" />
</g>
<g transform="matrix(1 0 0 1 2.69 -8.44)" >
<path style="stroke: rgb(0,0,0); stroke-width: 1.5; stroke-dasharray: none; stroke-linecap: round; stroke-dashoffset: 0; stroke-linejoin: round; stroke-miterlimit: 4; fill: none; fill-rule: nonzero; opacity: 1;" transform=" translate(-14.69, -3.56)" d="M 15.129 1.441 C 14.566280953717206 2.0036237360003555 14.250140671902738 2.766762484634277 14.250140671902738 3.5625 C 14.250140671902738 4.358237515365723 14.566280953717206 5.121376263999645 15.129 5.684" stroke-linecap="round" />
</g>
</g>
</g>
</svg>